<mxfile host="app.diagrams.net" modified="2023-09-22T06:39:15.403Z" agent="Mozilla/5.0 (Windows NT 10.0; Win64; x64) AppleWebKit/537.36 (KHTML, like Gecko) Chrome/117.0.0.0 Safari/537.36 Edg/117.0.2045.31" version="21.7.2" etag="_vLlxWWmr0I7rg76Yqof" type="github">
  <diagram name="Page-1" id="6QXPDsFJ-2dv1lFEHlbH">
    <mxGraphModel>
      <root>
        <mxCell id="0" />
        <mxCell id="1" parent="0" />
      </root>
    </mxGraphModel>
  </diagram>
</mxfile>
